<svg xmlns="http://www.w3.org/2000/svg" viewBox = "0 0 500 500">
	<rect x="24.0" y="36" width="102.0" height="36" fill="white" stroke="black"></rect>
	<text x="39.0" y="51" font-family="Arial" font-size="12" fill="black">                </text>
	<text x="39.0" y="63" font-family="Arial" font-size="12" fill="black">                </text>

	<rect x="90.0" y="108" width="132.0" height="24" fill="white" stroke="black"></rect>
	<text x="105.0" y="123" font-family="Arial" font-size="12" fill="black">       A BLOCK       </text>

	<rect x="0.0" y="156" width="102.0" height="24" fill="white" stroke="black"></rect>
	<text x="15.0" y="171" font-family="Arial" font-size="12" fill="black">    Block 1     </text>

	<rect x="114.0" y="156" width="138.0" height="24" fill="white" stroke="black"></rect>
	<text x="129.0" y="171" font-family="Arial" font-size="12" fill="black">   Additional block   </text>

	<rect x="114.0" y="204" width="138.0" height="24" fill="white" stroke="black"></rect>
	<text x="129.0" y="219" font-family="Arial" font-size="12" fill="black">     Second block     </text>

	<rect x="114.0" y="228" width="138.0" height="120" fill="white" stroke="black"></rect>
	<text x="129.0" y="243" font-family="Arial" font-size="12" fill="black">                      </text>
	<text x="129.0" y="255" font-family="Arial" font-size="12" fill="black"> - List of stuff here </text>
	<text x="129.0" y="267" font-family="Arial" font-size="12" fill="black"> - Good stuff too,    </text>
	<text x="129.0" y="279" font-family="Arial" font-size="12" fill="black">   I'd say            </text>
	<text x="129.0" y="291" font-family="Arial" font-size="12" fill="black">                      </text>
	<text x="129.0" y="303" font-family="Arial" font-size="12" fill="black">                      </text>
	<text x="129.0" y="315" font-family="Arial" font-size="12" fill="black">                      </text>
	<text x="129.0" y="327" font-family="Arial" font-size="12" fill="black">                      </text>
	<text x="129.0" y="339" font-family="Arial" font-size="12" fill="black">                      </text>

	<rect x="0.0" y="396" width="144.0" height="24" fill="white" stroke="black"></rect>
	<text x="15.0" y="411" font-family="Arial" font-size="12" fill="black">         SEC 1         </text>

	<rect x="0.0" y="420" width="144.0" height="24" fill="white" stroke="black"></rect>
	<text x="15.0" y="435" font-family="Arial" font-size="12" fill="black">         SEC 2         </text>

	<rect x="0.0" y="444" width="144.0" height="24" fill="white" stroke="black"></rect>
	<text x="15.0" y="459" font-family="Arial" font-size="12" fill="black">         SEC 3         </text>

	<line x1="138.0" y1="48" x2="162.0" y2="48" style="stroke:rgb(0,0,0);stroke-width:1" />
	<line x1="162.0" y1="48" x2="162.0" y2="96" style="stroke:rgb(0,0,0);stroke-width:1" />
	<line x1="48.0" y1="120" x2="48.0" y2="156" style="stroke:rgb(0,0,0);stroke-width:1" />
	<line x1="48.0" y1="120" x2="84.0" y2="120" style="stroke:rgb(0,0,0);stroke-width:1" />
	<line x1="234.0" y1="120" x2="240.0" y2="120" style="stroke:rgb(0,0,0);stroke-width:1" />
	<line x1="240.0" y1="120" x2="240.0" y2="144" style="stroke:rgb(0,0,0);stroke-width:1" />
	<line x1="252.0" y1="120" x2="240.0" y2="120" style="stroke:rgb(0,0,0);stroke-width:1" />
	<line x1="48.0" y1="192" x2="48.0" y2="216" style="stroke:rgb(0,0,0);stroke-width:1" />
	<line x1="48.0" y1="216" x2="48.0" y2="384" style="stroke:rgb(0,0,0);stroke-width:1" />
	<line x1="48.0" y1="216" x2="108.0" y2="216" style="stroke:rgb(0,0,0);stroke-width:1" />
</svg>